<?xml version="1.0" standalone="no"?><!DOCTYPE svg PUBLIC "-//W3C//DTD SVG 1.1//EN" "http://www.w3.org/Graphics/SVG/1.1/DTD/svg11.dtd"><svg class="icon" width="200px" height="200.00px" viewBox="0 0 1024 1024" version="1.1" xmlns="http://www.w3.org/2000/svg"><path fill="#ffffff" d="M625.777778 284.444444a227.84 227.84 0 0 1 227.043555 243.143112C844.743111 648.419556 738.872889 739.555556 617.756444 739.555556h-328.248888c-59.392 0-112.526222-43.292444-118.272-102.4A113.891556 113.891556 0 0 1 284.444444 512c3.356444 0 6.599111 0.284444 9.841778 0.568889l43.918222 3.754667a56.888889 56.888889 0 0 0 58.481778-37.888l14.563556-41.585778A227.783111 227.783111 0 0 1 625.777778 284.444444z m0-113.777777a341.219556 341.219556 0 0 0-321.877334 228.522666A227.555556 227.555556 0 1 0 284.444444 853.333333h341.333334a341.333333 341.333333 0 0 0 0-682.666666z"  /></svg>