<?xml version="1.0" standalone="no"?><!DOCTYPE svg PUBLIC "-//W3C//DTD SVG 1.1//EN" "http://www.w3.org/Graphics/SVG/1.1/DTD/svg11.dtd"><svg class="icon" width="200px" height="200.00px" viewBox="0 0 1024 1024" version="1.1" xmlns="http://www.w3.org/2000/svg"><path fill="#ffffff" d="M981.02 60.84c-0.07-0.96 0.02-1.9-0.12-2.88-0.06-0.41-0.22-0.77-0.29-1.17-0.27-1.59-0.7-3.1-1.14-4.63-0.35-1.21-0.67-2.43-1.12-3.6-0.54-1.39-1.22-2.69-1.9-4-0.6-1.17-1.17-2.34-1.87-3.44-0.77-1.21-1.67-2.32-2.56-3.44-0.8-1.01-1.56-2.04-2.45-2.96-1.05-1.11-2.21-2.08-3.38-3.07-0.89-0.75-1.74-1.54-2.68-2.21-1.34-0.97-2.78-1.77-4.24-2.58-0.92-0.51-1.8-1.05-2.75-1.49-1.54-0.71-3.15-1.25-4.79-1.78-1.02-0.33-2.02-0.7-3.07-0.95-1.56-0.38-3.17-0.58-4.8-0.78-1.25-0.16-2.48-0.33-3.75-0.38-0.5-0.02-0.96-0.15-1.46-0.15-1.09 0-2.11 0.24-3.17 0.32-0.96 0.07-1.9-0.03-2.87 0.11l-597.33 85.33c-0.43 0.06-0.82 0.23-1.24 0.31-1.5 0.26-2.93 0.67-4.37 1.08-1.3 0.37-2.6 0.71-3.84 1.19-1.32 0.52-2.55 1.17-3.8 1.8-1.23 0.63-2.47 1.23-3.63 1.97-1.14 0.73-2.17 1.57-3.23 2.4-1.09 0.86-2.2 1.68-3.2 2.64-1 0.95-1.87 2-2.77 3.04-0.88 1.01-1.76 1.99-2.54 3.08-0.83 1.16-1.51 2.4-2.22 3.64-0.65 1.13-1.32 2.24-1.86 3.43-0.59 1.29-1.02 2.64-1.48 3.99-0.44 1.29-0.89 2.56-1.21 3.89-0.31 1.33-0.47 2.71-0.65 4.08-0.2 1.45-0.4 2.88-0.44 4.36-0.01 0.45-0.13 0.87-0.13 1.32v574.88C273.53 711.44 244.43 704 213.33 704c-94.1 0-170.67 67-170.67 149.33s76.56 149.33 170.67 149.33S384 935.67 384 853.33V399.67l512-73.14v312.34c-25.14-12.77-54.23-20.21-85.33-20.21-94.1 0-170.67 67-170.67 149.33s76.56 149.33 170.67 149.33 170.67-67 170.67-149.33V64c-0.01-1.08-0.24-2.1-0.32-3.16zM213.33 917.33c-46.25 0-85.33-29.31-85.33-64s39.08-64 85.33-64 85.33 29.31 85.33 64-39.08 64-85.33 64zM384 313.47V186.34l512-73.14v127.13l-512 73.14zM810.67 832c-46.25 0-85.33-29.31-85.33-64s39.08-64 85.33-64S896 733.31 896 768s-39.08 64-85.33 64z"  /></svg>