<svg t="1577953393904" class="icon" viewBox="0 0 1024 1024" version="1.1" xmlns="http://www.w3.org/2000/svg" p-id="2131" width="200" height="200"><path d="M959.356173 218.210036c-3.071939-50.236435-44.379272-90.110198-95.352973-90.110198l-96.00832 0 0-32.071039c0-53.02166-43.00714-96.00832-96.00832-96.00832l-319.9936 0c-53.02166 0-96.00832 42.966181-96.00832 96.00832l0 32.030079-96.00832 0c-51.035139 0-92.321994 39.873763-95.393932 90.110198l-0.614388 0 0 69.855883c0 35.327293 28.671427 63.99872 63.99872 63.99872l0 0 0 543.97888c0 70.695546 57.301894 127.99744 127.99744 127.99744l511.98976 0c70.695546 0 127.99744-57.301894 127.99744-127.99744l0-543.99936c35.327293 0 63.99872-28.671427 63.99872-63.99872l0-69.814924-0.634867 0zM320.00384 96.069759c0-17.694366 14.294754-32.0096 32.0096-32.0096l319.9936 0c17.694366 0 32.0096 14.294754 32.0096 32.0096l0 32.0096-383.99232 0 0-32.0096zM831.9936 896.043519c0 35.265855-28.732865 63.99872-63.99872 63.99872l-511.98976 0c-35.286334 0-63.99872-28.732865-63.99872-63.99872l0-543.99936 639.9872 0 0 543.99936zM895.99232 256.035839l0 32.0096-767.98464 0 0-63.957761c0-17.694366 14.294754-32.0096 32.0096-32.0096l703.98592 0c17.694366 0 32.0096 14.294754 32.0096 32.0096l0 31.968641zM288.01472 896.166397l63.99872 0c17.694366 0 32.0096-14.294754 32.0096-32.0096l0-416.00192c0-17.694366-14.294754-32.0096-32.0096-32.0096l-63.99872 0c-17.694366 0-32.0096 14.294754-32.0096 32.0096l0 416.00192c0 17.694366 14.294754 32.0096 32.0096 32.0096zM288.01472 448.154877l63.99872 0 0 416.00192-63.99872 0 0-416.00192zM480.01088 896.166397l63.99872 0c17.694366 0 32.0096-14.294754 32.0096-32.0096l0-416.00192c0-17.694366-14.294754-32.0096-32.0096-32.0096l-63.99872 0c-17.694366 0-32.0096 14.294754-32.0096 32.0096l0 416.00192c0 17.694366 14.294754 32.0096 32.0096 32.0096zM480.01088 448.154877l63.99872 0 0 416.00192-63.99872 0 0-416.00192zM672.00704 896.166397l63.99872 0c17.694366 0 32.0096-14.294754 32.0096-32.0096l0-416.00192c0-17.694366-14.294754-32.0096-32.0096-32.0096l-63.99872 0c-17.694366 0-32.0096 14.294754-32.0096 32.0096l0 416.00192c0 17.694366 14.294754 32.0096 32.0096 32.0096zM672.00704 448.154877l63.99872 0 0 416.00192-63.99872 0 0-416.00192z" p-id="2132"></path></svg>